<svg preserveAspectRatio="none" overflow="visible" style="display: block;" width="162.91" height="82" viewBox="0 0 162.91 82" fill="none" xmlns="http://www.w3.org/2000/svg">
<g id="&#235;&#161;&#156;&#234;&#179;&#160;">
<path id="Vector" d="M29 0V9.20408C27.3666 9.20408 25.9608 9.35748 24.7826 9.66428C23.6311 9.9432 22.7608 10.4731 22.1717 11.2541C21.6094 12.0071 21.3952 13.0949 21.5291 14.5173L22.7742 26.8592C23.0956 29.983 22.7609 32.5071 21.7701 34.4316C20.8061 36.3561 19.3199 37.8344 17.3116 38.8663C15.3301 39.8704 12.9871 40.5816 10.2825 41C13.1477 41.4463 15.5711 42.1714 17.5526 43.1755C19.5342 44.1796 20.9801 45.6299 21.8906 47.5265C22.801 49.4231 23.0956 51.9612 22.7742 55.1408L21.5291 67.4827C21.3952 68.8772 21.6094 69.965 22.1717 70.7459C22.7608 71.5269 23.6445 72.0568 24.8227 72.3357C26.0009 72.6425 27.3934 72.7959 29 72.7959V82C25.3047 82 22.1717 81.7211 19.6011 81.1633C17.0305 80.6054 14.9686 79.7129 13.4155 78.4857C11.8892 77.2864 10.8315 75.6966 10.2424 73.7163C9.68006 71.7639 9.53278 69.3793 9.80055 66.5622L11.0055 54.5969C11.2198 52.4772 10.8717 50.8177 9.96122 49.6184C9.07756 48.4191 7.76547 47.5823 6.02493 47.1082C4.2844 46.6061 2.27608 46.3551 0 46.3551V35.6449C2.24931 35.6449 4.24423 35.4078 5.98477 34.9337C7.7253 34.4316 9.05079 33.581 9.96122 32.3816C10.8717 31.1823 11.2198 29.5228 11.0055 27.4031L9.80055 15.5214C9.506 12.6486 9.63989 10.2221 10.2022 8.24184C10.7913 6.26157 11.849 4.67177 13.3753 3.47245C14.9284 2.24524 16.9903 1.36667 19.5609 0.836733C22.1584 0.278911 25.3047 0 29 0Z" fill="#426EF3"/>
<g id="&#235;&#170;&#168;&#236;&#157;&#140;">
<path id="Vector_2" d="M87.0777 46.4405H109.308V58.3355H87.0777V46.4405ZM105.096 49.8335H91.2897V54.9425H105.096V49.8335ZM82.5537 40.4735H113.91V43.8665H82.5537V40.4735ZM88.7547 31.2695C88.7547 26.6675 92.6157 23.6645 98.1537 23.6645C103.809 23.6645 107.748 26.6675 107.748 31.2695C107.748 35.5595 103.809 38.7575 98.1537 38.7575C92.6157 38.7575 88.7547 35.5595 88.7547 31.2695ZM92.8497 31.2695C92.8497 33.5705 94.9947 35.2475 98.1927 35.2475C101.43 35.2475 103.653 33.5705 103.653 31.2695C103.653 28.6955 101.43 27.1745 98.1927 27.1745C94.9947 27.1745 92.8497 28.6955 92.8497 31.2695Z" fill="black"/>
<path id="Vector_3" d="M49 49.8725H62.533V43.2425H53.602V26.7065H75.715V43.2425H66.823V49.8725H80.434V53.3435H49V49.8725ZM71.503 30.0995H57.814V39.8495H71.503V30.0995Z" fill="black"/>
</g>
<path id="Vector_4" d="M133.91 0V9.20408C135.543 9.20408 136.949 9.35748 138.127 9.66428C139.279 9.9432 140.149 10.4731 140.738 11.2541C141.3 12.0071 141.515 13.0949 141.381 14.5173L140.135 26.8592C139.814 29.983 140.149 32.5071 141.14 34.4316C142.104 36.3561 143.59 37.8344 145.598 38.8663C147.58 39.8704 149.923 40.5816 152.627 41C149.762 41.4463 147.339 42.1714 145.357 43.1755C143.376 44.1796 141.93 45.6299 141.019 47.5265C140.109 49.4231 139.814 51.9612 140.135 55.1408L141.381 67.4827C141.515 68.8772 141.3 69.965 140.738 70.7459C140.149 71.5269 139.265 72.0568 138.087 72.3357C136.909 72.6425 135.516 72.7959 133.91 72.7959V82C137.605 82 140.738 81.7211 143.309 81.1633C145.879 80.6054 147.941 79.7129 149.494 78.4857C151.021 77.2864 152.078 75.6966 152.667 73.7163C153.23 71.7639 153.377 69.3793 153.109 66.5622L151.904 54.5969C151.69 52.4772 152.038 50.8177 152.949 49.6184C153.832 48.4191 155.144 47.5823 156.885 47.1082C158.625 46.6061 160.634 46.3551 162.91 46.3551V35.6449C160.66 35.6449 158.665 35.4078 156.925 34.9337C155.184 34.4316 153.859 33.581 152.949 32.3816C152.038 31.1823 151.69 29.5228 151.904 27.4031L153.109 15.5214C153.404 12.6486 153.27 10.2221 152.708 8.24184C152.118 6.26157 151.061 4.67177 149.534 3.47245C147.981 2.24524 145.919 1.36667 143.349 0.836733C140.751 0.278911 137.605 0 133.91 0Z" fill="#426EF3"/>
</g>
</svg>
